<svg width="43" height="35" viewBox="0 0 43 35" fill="none" xmlns="http://www.w3.org/2000/svg">
<path d="M42.8274 20.9328C42.8274 16.3908 42.8356 11.8475 42.8205 7.3055C42.8068 2.92127 39.9288 0.0295472 35.5089 0.0130858C28.2617 -0.0116063 21.0146 0.00622689 13.7674 0.00622689C13.2187 0.00622689 12.67 0.00622689 11.9992 0.00622689C11.9992 0.00622689 11.9992 0.00348332 11.9992 0.00211153H9.28308C8.42571 0.00211153 7.82213 0.00622689 7.21717 0.00211153C2.59974 -0.019837 -0.0587827 3.6977 0.00843477 7.26435C0.137383 13.9998 0.14287 20.7408 0.00157584 27.4749C-0.0738724 31.0456 2.5627 34.8235 7.31319 34.8167C16.7044 34.8016 26.0971 34.8263 35.4883 34.8043C39.8808 34.7933 42.7766 31.8783 42.8274 27.5092C42.8274 27.4461 42.8287 27.3843 42.8301 27.3212V22.83C42.8301 22.83 42.8274 22.83 42.826 22.83C42.826 22.0467 42.826 21.4898 42.826 20.9342L42.8274 20.9328ZM35.406 32.2075C29.1808 32.1033 22.9515 32.1746 16.725 32.1746C13.6618 32.1746 10.5959 32.0731 7.53817 32.2048C4.69034 32.3269 2.54624 30.287 2.59974 27.2869C2.71908 20.6036 2.61208 13.9148 2.59151 7.22868C2.58328 4.52215 4.32407 2.67572 7.04707 2.65515C11.8456 2.61811 16.6427 2.64554 21.4412 2.64554V2.64006C26.1876 2.64006 30.9353 2.6524 35.6831 2.6332C37.5487 2.62634 38.9672 3.36847 39.7655 5.0544C40.0591 5.67307 40.1853 6.42618 40.188 7.11894C40.2182 13.8571 40.1359 20.5954 40.2402 27.3322C40.2854 30.2747 38.1578 32.2528 35.406 32.2075Z" fill="#FEC804"/>
<path d="M27.4003 26.3253C29.9504 26.3253 32.4992 26.3253 35.0494 26.3253C35.406 26.3253 35.7654 26.3185 36.118 26.3555C36.7888 26.4255 37.0919 26.8795 37.1441 27.4914C37.1962 28.1073 36.9712 28.6231 36.31 28.7644C35.8162 28.87 35.3018 28.9221 34.7956 28.9235C29.8489 28.9345 24.9036 28.9345 19.957 28.9235C19.3987 28.9235 18.8294 28.8878 18.2861 28.7726C17.6675 28.6395 17.3177 28.1567 17.3465 27.5435C17.3753 26.9358 17.7676 26.4954 18.3781 26.3706C18.7718 26.2897 19.1901 26.3226 19.5976 26.3212C22.1985 26.3185 24.798 26.3199 27.3989 26.3199V26.324L27.4003 26.3253Z" fill="#FEC804"/>
<path d="M30.8133 23.2663C29.3853 23.2663 27.9572 23.2718 26.5292 23.2622C26.1753 23.2595 25.7994 23.2759 25.4716 23.1662C24.9599 22.9961 24.5964 22.6271 24.6046 22.0372C24.6128 21.4034 24.9366 20.9658 25.5525 20.8163C25.8927 20.734 26.2603 20.7381 26.6156 20.7381C29.4209 20.734 32.2262 20.7367 35.0315 20.7381C35.2867 20.7381 35.5432 20.7271 35.7956 20.7505C36.7504 20.841 37.1756 21.2525 37.1523 22.0468C37.129 22.8287 36.701 23.2142 35.7106 23.2636C34.9986 23.2992 34.2825 23.2691 33.5692 23.2691C32.6515 23.2691 31.7324 23.2691 30.8147 23.2691V23.2649L30.8133 23.2663Z" fill="#FEC804"/>
<path d="M9.94432 28.8646C8.97584 28.8646 8.00324 28.9222 7.04025 28.8481C6.07177 28.7726 5.60947 28.2843 5.63142 27.5682C5.65337 26.8535 6.19111 26.3473 7.08277 26.3336C9.0211 26.3048 10.9608 26.3062 12.8991 26.3377C13.7538 26.3514 14.3203 26.9139 14.3148 27.6107C14.3107 28.25 13.8292 28.7685 13.0007 28.8248C11.9855 28.8934 10.9622 28.8412 9.94295 28.8412C9.94295 28.8481 9.94295 28.8563 9.94295 28.8632L9.94432 28.8646Z" fill="#FEC804"/>
<path d="M41.066 9.6897H2.10727V13.8051H41.066V9.6897Z" fill="#FEC804"/>
</svg>
