<svg preserveAspectRatio="xMidYMid meet" width="100%" height="100%" overflow="visible" style="display: block;" viewBox="0 0 320.342 95.6752" fill="none" xmlns="http://www.w3.org/2000/svg">
<g id="Group">
<path id="Vector" d="M22.9525 89.4056C22.9525 92.3715 20.0661 94.8804 16.658 94.8804H6.29704C2.88645 94.8804 0 92.3715 0 89.4056V6.27225C0 3.3063 2.88645 0.797425 6.29704 0.797425H33.0526C36.4632 0.797425 39.3497 3.3063 39.3497 6.26976V15.2794C39.3497 18.2453 36.4632 20.7517 33.0526 20.7517H25.9706C24.2666 20.7517 22.9525 21.8919 22.9525 23.3749V36.9476C22.9525 38.4281 24.2641 39.5708 25.9706 39.5708H32.2677C35.6783 39.5708 38.5622 42.0797 38.5622 45.0431V55.1929C38.5622 58.1589 35.6758 60.6652 32.2677 60.6652H25.9706C24.2666 60.6652 22.9525 61.8054 22.9525 63.2884V89.4031V89.4056Z" fill="var(--fill-0, #FEC804)"/>
<path id="Vector_2" d="M45.0903 21.3255C45.0903 7.29811 57.9452 0 71.0609 0C84.1766 0 96.7682 7.18384 96.7682 20.8684V89.4055C96.7682 92.3715 93.8818 94.8804 90.4712 94.8804H80.1103C76.6997 94.8804 73.8157 92.0287 73.8157 89.4055V63.5194C73.8157 62.1507 72.5041 61.0105 70.9293 61.0105C69.3544 61.0105 68.0428 62.1507 68.0428 63.5194V89.4055C68.0428 92.3715 65.1564 94.8804 61.7483 94.8804H51.3873C47.9767 94.8804 45.0903 92.3715 45.0903 89.4055V21.3255ZM68.0453 39.685C68.0453 41.0537 69.3569 42.1939 70.9317 42.1939C72.5066 42.1939 73.8182 41.0537 73.8182 39.685V22.0086C73.8182 20.6424 72.5066 19.4997 70.9317 19.4997C69.3569 19.4997 68.0453 20.6399 68.0453 22.0086V39.685Z" fill="var(--fill-0, #FEC804)"/>
<path id="Vector_3" d="M248.553 72.3005C248.553 73.7834 249.733 74.9236 251.439 74.9236H257.734C261.145 74.9236 264.031 77.4325 264.031 80.3959V89.4055C264.031 92.3715 261.145 94.8804 257.734 94.8804H231.895C228.484 94.8804 225.598 92.3715 225.598 89.4055V6.2722C225.598 3.30626 228.484 0.799866 231.895 0.799866H242.256C245.666 0.799866 248.55 3.30875 248.55 6.2722V72.3005H248.553Z" fill="var(--fill-0, #FEC804)"/>
<path id="Vector_4" d="M268.664 21.3255C268.664 7.29811 281.519 0 294.634 0C307.75 0 320.342 7.18384 320.342 20.8684V89.4055C320.342 92.3715 317.455 94.8804 314.045 94.8804H303.684C300.273 94.8804 297.389 92.0287 297.389 89.4055V63.5194C297.389 62.1507 296.078 61.0105 294.503 61.0105C292.928 61.0105 291.616 62.1507 291.616 63.5194V89.4055C291.616 92.3715 288.73 94.8804 285.322 94.8804H274.961C271.55 94.8804 268.664 92.3715 268.664 89.4055V21.3255ZM291.616 39.685C291.616 41.0537 292.928 42.1939 294.503 42.1939C296.078 42.1939 297.389 41.0537 297.389 39.685V22.0086C297.389 20.6424 296.078 19.4997 294.503 19.4997C292.928 19.4997 291.616 20.6399 291.616 22.0086V39.685Z" fill="var(--fill-0, #FEC804)"/>
<path id="Vector_5" d="M191.037 0C176.61 0 165.198 8.66681 165.198 21.7801V73.8952C165.198 87.4655 177.003 95.6752 191.037 95.6752C205.072 95.6752 217.006 87.237 217.006 74.1212V21.554C217.008 8.21223 204.941 0 191.037 0ZM191.037 59.925C188.029 47.6389 185.59 45.2021 173.306 42.1939C185.592 39.1857 188.029 36.7464 191.037 24.4628C194.046 36.7489 196.485 39.1857 208.768 42.1939C196.482 45.2021 194.046 47.6414 191.037 59.925Z" fill="var(--fill-0, #FEC804)"/>
<path id="Vector_6" d="M131.068 95.3647H128.648C118.662 95.3647 116.516 93.5091 115.371 85.7812L104.941 16.2903C104.63 14.7551 104.054 10.0181 103.791 7.84701C103.403 4.65998 104.089 2.56842 106.051 1.33634C107.005 0.737686 108.138 0.484314 109.265 0.484314H121.097C127.978 0.484314 128.45 2.82179 128.45 10.7285L128.75 72.899C128.765 74.1435 128.497 76.1432 131.068 76.1432C133.639 76.1432 133.37 74.141 133.385 72.899L133.686 10.7285C133.686 2.82179 134.158 0.484314 141.039 0.484314H152.87C153.998 0.484314 155.128 0.737686 156.085 1.33634C158.047 2.56842 158.733 4.66247 158.345 7.84701C158.079 10.0181 157.503 14.7551 157.195 16.2903L146.764 85.7812C145.619 93.5066 143.473 95.3647 133.487 95.3647H131.068Z" fill="var(--fill-0, #FEC804)"/>
</g>
</svg>
