<svg preserveAspectRatio="xMidYMid meet" width="100%" height="100%" overflow="visible" style="display: block;" viewBox="0 0 674 201.301" fill="none" xmlns="http://www.w3.org/2000/svg">
<g id="Group">
<path id="Vector" d="M48.2922 188.11C48.2922 194.35 42.2191 199.629 35.0484 199.629H13.249C6.07311 199.629 0 194.35 0 188.11V13.1967C0 6.95636 6.07311 1.67767 13.249 1.67767H69.5428C76.7187 1.67767 82.7918 6.95636 82.7918 13.1915V32.1477C82.7918 38.3881 76.7187 43.6616 69.5428 43.6616H54.6423C51.057 43.6616 48.2922 46.0605 48.2922 49.1807V77.7379C48.2922 80.8528 51.0517 83.257 54.6423 83.257H67.8913C75.0672 83.257 81.1351 88.5356 81.1351 94.7708V116.126C81.1351 122.366 75.0619 127.64 67.8913 127.64H54.6423C51.057 127.64 48.2922 130.039 48.2922 133.159V188.104V188.11Z" fill="var(--fill-0, white)"/>
<path id="Vector_2" d="M94.8701 44.8689C94.8701 15.3552 121.917 0 149.512 0C177.108 0 203.601 15.1148 203.601 43.9072V188.11C203.601 194.35 197.528 199.629 190.352 199.629H168.552C161.376 199.629 155.309 193.629 155.309 188.11V133.645C155.309 130.765 152.549 128.366 149.235 128.366C145.922 128.366 143.162 130.765 143.162 133.645V188.11C143.162 194.35 137.089 199.629 129.919 199.629H108.119C100.943 199.629 94.8701 194.35 94.8701 188.11V44.8689ZM143.168 83.4974C143.168 86.3772 145.927 88.7761 149.241 88.7761C152.554 88.7761 155.314 86.3772 155.314 83.4974V46.3061C155.314 43.4316 152.554 41.0274 149.241 41.0274C145.927 41.0274 143.168 43.4264 143.168 46.3061V83.4974Z" fill="var(--fill-0, white)"/>
<path id="Vector_3" d="M522.956 152.12C522.956 155.241 525.439 157.639 529.029 157.639H542.273C549.449 157.639 555.522 162.918 555.522 169.153V188.11C555.522 194.35 549.449 199.629 542.273 199.629H487.908C480.732 199.629 474.659 194.35 474.659 188.11V13.1967C474.659 6.95637 480.732 1.6829 487.908 1.6829H509.707C516.883 1.6829 522.951 6.96159 522.951 13.1967V152.12H522.956Z" fill="var(--fill-0, white)"/>
<path id="Vector_4" d="M565.269 44.8689C565.269 15.3552 592.316 0 619.912 0C647.507 0 674 15.1148 674 43.9072V188.11C674 194.35 667.927 199.629 660.751 199.629H638.952C631.776 199.629 625.708 193.629 625.708 188.11V133.645C625.708 130.765 622.948 128.366 619.635 128.366C616.321 128.366 613.562 130.765 613.562 133.645V188.11C613.562 194.35 607.489 199.629 600.318 199.629H578.518C571.343 199.629 565.269 194.35 565.269 188.11V44.8689ZM613.562 83.4974C613.562 86.3772 616.321 88.7761 619.635 88.7761C622.948 88.7761 625.708 86.3772 625.708 83.4974V46.3061C625.708 43.4316 622.948 41.0274 619.635 41.0274C616.321 41.0274 613.562 43.4264 613.562 46.3061V83.4974Z" fill="var(--fill-0, white)"/>
<path id="Vector_5" d="M401.944 0C371.588 0 347.578 18.235 347.578 45.8253V155.476C347.578 184.028 372.414 201.301 401.944 201.301C431.473 201.301 456.581 183.547 456.581 155.951V45.3497C456.586 17.2786 431.196 0 401.944 0ZM401.944 126.082C395.614 100.232 390.482 95.1053 364.637 88.7761C390.487 82.4469 395.614 77.3145 401.944 51.4699C408.273 77.3198 413.405 82.4469 439.25 88.7761C413.4 95.1053 408.273 100.238 401.944 126.082Z" fill="var(--fill-0, white)"/>
<path id="Vector_6" d="M275.767 200.648H270.677C249.666 200.648 245.151 196.744 242.741 180.484L220.796 34.275C220.142 31.045 218.93 21.0782 218.376 16.5103C217.561 9.80483 219.003 5.40418 223.132 2.81187C225.139 1.5523 227.522 1.01921 229.895 1.01921H254.788C269.266 1.01921 270.259 5.93727 270.259 22.573L270.891 153.38C270.922 155.998 270.358 160.206 275.767 160.206C281.177 160.206 280.612 155.993 280.644 153.38L281.276 22.573C281.276 5.93727 282.269 1.01921 296.746 1.01921H321.64C324.012 1.01921 326.39 1.5523 328.403 2.81187C332.531 5.40418 333.974 9.81006 333.159 16.5103C332.599 21.0782 331.387 31.045 330.739 34.275L308.793 180.484C306.384 196.738 301.868 200.648 280.858 200.648H275.767Z" fill="var(--fill-0, white)"/>
</g>
</svg>
