<svg preserveAspectRatio="xMidYMid meet" width="100%" height="100%" overflow="visible" style="display: block;" viewBox="0 0 458.884 137.053" fill="none" xmlns="http://www.w3.org/2000/svg">
<g id="Group">
<path id="Vector" d="M32.8791 128.072C32.8791 132.32 28.7443 135.914 23.8622 135.914H9.02039C4.13479 135.914 0 132.32 0 128.072V8.98469C0 4.73603 4.13479 1.14211 9.02039 1.14211H47.3473C52.2329 1.14211 56.3677 4.73603 56.3677 8.98113V21.8872C56.3677 26.1359 52.2329 29.7263 47.3473 29.7263H37.2024C34.7614 29.7263 32.8791 31.3595 32.8791 33.4839V52.9266C32.8791 55.0474 34.7579 56.6842 37.2024 56.6842H46.2228C51.1084 56.6842 55.2397 60.2782 55.2397 64.5233V79.0627C55.2397 83.3113 51.1049 86.9017 46.2228 86.9017H37.2024C34.7614 86.9017 32.8791 88.535 32.8791 90.6593V128.068V128.072Z" fill="var(--fill-0, #FEC804)"/>
<path id="Vector_2" d="M64.5909 30.5484C64.5909 10.4544 83.0053 0 101.793 0C120.581 0 138.619 10.2907 138.619 29.8936V128.072C138.619 132.32 134.484 135.914 129.598 135.914H114.756C109.871 135.914 105.74 131.829 105.74 128.072V90.9903C105.74 89.0297 103.861 87.3964 101.605 87.3964C99.3488 87.3964 97.47 89.0297 97.47 90.9903V128.072C97.47 132.32 93.3352 135.914 88.4532 135.914H73.6113C68.7257 135.914 64.5909 132.32 64.5909 128.072V30.5484ZM97.4736 56.848C97.4736 58.8087 99.3524 60.442 101.608 60.442C103.864 60.442 105.743 58.8087 105.743 56.848V31.5269C105.743 29.5698 103.864 27.933 101.608 27.933C99.3524 27.933 97.4736 29.5662 97.4736 31.5269V56.848Z" fill="var(--fill-0, #FEC804)"/>
<path id="Vector_3" d="M356.048 103.569C356.048 105.693 357.738 107.327 360.182 107.327H369.199C374.085 107.327 378.22 110.92 378.22 115.166V128.072C378.22 132.32 374.085 135.914 369.199 135.914H332.185C327.3 135.914 323.165 132.32 323.165 128.072V8.9847C323.165 4.73604 327.3 1.14568 332.185 1.14568H347.027C351.913 1.14568 356.044 4.7396 356.044 8.9847V103.569H356.048Z" fill="var(--fill-0, #FEC804)"/>
<path id="Vector_4" d="M384.856 30.5484C384.856 10.4544 403.27 0 422.058 0C440.846 0 458.884 10.2907 458.884 29.8936V128.072C458.884 132.32 454.749 135.914 449.863 135.914H435.021C430.136 135.914 426.004 131.829 426.004 128.072V90.9903C426.004 89.0297 424.126 87.3964 421.87 87.3964C419.614 87.3964 417.735 89.0297 417.735 90.9903V128.072C417.735 132.32 413.6 135.914 408.718 135.914H393.876C388.991 135.914 384.856 132.32 384.856 128.072V30.5484ZM417.735 56.848C417.735 58.8087 419.614 60.442 421.87 60.442C424.126 60.442 426.004 58.8087 426.004 56.848V31.5269C426.004 29.5698 424.126 27.933 421.87 27.933C419.614 27.933 417.735 29.5662 417.735 31.5269V56.848Z" fill="var(--fill-0, #FEC804)"/>
<path id="Vector_5" d="M273.658 0C252.991 0 236.644 12.4151 236.644 31.1995V105.854C236.644 125.293 253.553 137.053 273.658 137.053C293.762 137.053 310.857 124.965 310.857 106.177V30.8757C310.86 11.7639 293.574 0 273.658 0ZM273.658 85.8414C269.349 68.2419 265.854 64.7511 248.258 60.442C265.858 56.1328 269.349 52.6385 273.658 35.0425C277.967 52.6421 281.461 56.1328 299.057 60.442C281.458 64.7511 277.967 68.2454 273.658 85.8414Z" fill="var(--fill-0, #FEC804)"/>
<path id="Vector_6" d="M187.752 136.609H184.286C169.982 136.609 166.908 133.95 165.267 122.88L150.326 23.3359C149.881 21.1369 149.055 14.3511 148.678 11.2411C148.123 6.67576 149.105 3.67964 151.916 1.9147C153.283 1.05714 154.905 0.694188 156.521 0.694188H173.469C183.326 0.694188 184.002 4.04259 184.002 15.3688L184.432 104.427C184.454 106.21 184.069 109.074 187.752 109.074C191.435 109.074 191.051 106.206 191.072 104.427L191.503 15.3688C191.503 4.04259 192.179 0.694188 202.035 0.694188H218.984C220.599 0.694188 222.218 1.05714 223.588 1.9147C226.399 3.67964 227.381 6.67932 226.826 11.2411C226.446 14.3511 225.62 21.1369 225.179 23.3359L210.237 122.88C208.597 133.947 205.523 136.609 191.218 136.609H187.752Z" fill="var(--fill-0, #FEC804)"/>
</g>
</svg>
