<svg preserveAspectRatio="xMidYMid meet" width="100%" height="100%" overflow="visible" style="display: block;" viewBox="0 0 251.116 75" fill="none" xmlns="http://www.w3.org/2000/svg">
<g id="Group">
<path id="Vector" d="M17.9925 70.0852C17.9925 72.4102 15.7298 74.3769 13.0582 74.3769H4.93626C2.2627 74.3769 0 72.4102 0 70.0852V4.91679C0 2.59178 2.2627 0.625063 4.93626 0.625063H25.91C28.5836 0.625063 30.8463 2.59178 30.8463 4.91484V11.9775C30.8463 14.3025 28.5836 16.2673 25.91 16.2673H20.3584C19.0226 16.2673 17.9925 17.161 17.9925 18.3236V28.9633C17.9925 30.1238 19.0207 31.0196 20.3584 31.0196H25.2947C27.9682 31.0196 30.229 32.9863 30.229 35.3093V43.2658C30.229 45.5908 27.9663 47.5556 25.2947 47.5556H20.3584C19.0226 47.5556 17.9925 48.4493 17.9925 49.6118V70.0832V70.0852Z" fill="var(--fill-0, #FEC804)"/>
<path id="Vector_2" d="M35.3464 16.7171C35.3464 5.721 45.4233 0 55.7048 0C65.9862 0 75.8568 5.63143 75.8568 16.3588V70.0852C75.8568 72.4102 73.5941 74.3769 70.9205 74.3769H62.7986C60.125 74.3769 57.8643 72.1414 57.8643 70.0852V49.7929C57.8643 48.72 56.8361 47.8262 55.6016 47.8262C54.367 47.8262 53.3389 48.72 53.3389 49.7929V70.0852C53.3389 72.4102 51.0762 74.3769 48.4046 74.3769H40.2826C37.609 74.3769 35.3464 72.4102 35.3464 70.0852V16.7171ZM53.3408 31.1091C53.3408 32.1821 54.369 33.0759 55.6035 33.0759C56.8381 33.0759 57.8662 32.1821 57.8662 31.1091V17.2526C57.8662 16.1816 56.8381 15.2859 55.6035 15.2859C54.369 15.2859 53.3408 16.1796 53.3408 17.2526V31.1091Z" fill="var(--fill-0, #FEC804)"/>
<path id="Vector_3" d="M194.841 56.6764C194.841 57.839 195.766 58.7327 197.104 58.7327H202.038C204.712 58.7327 206.974 60.6995 206.974 63.0225V70.0852C206.974 72.4102 204.712 74.3769 202.038 74.3769H181.783C179.109 74.3769 176.847 72.4102 176.847 70.0852V4.91679C176.847 2.59178 179.109 0.627012 181.783 0.627012H189.905C192.578 0.627012 194.839 2.59373 194.839 4.91679V56.6764H194.841Z" fill="var(--fill-0, #FEC804)"/>
<path id="Vector_4" d="M210.606 16.7171C210.606 5.721 220.683 0 230.964 0C241.246 0 251.116 5.63143 251.116 16.3588V70.0852C251.116 72.4102 248.854 74.3769 246.18 74.3769H238.058C235.385 74.3769 233.124 72.1414 233.124 70.0852V49.7929C233.124 48.72 232.096 47.8262 230.861 47.8262C229.627 47.8262 228.598 48.72 228.598 49.7929V70.0852C228.598 72.4102 226.336 74.3769 223.664 74.3769H215.542C212.869 74.3769 210.606 72.4102 210.606 70.0852V16.7171ZM228.598 31.1091C228.598 32.1821 229.627 33.0759 230.861 33.0759C232.096 33.0759 233.124 32.1821 233.124 31.1091V17.2526C233.124 16.1816 232.096 15.2859 230.861 15.2859C229.627 15.2859 228.598 16.1796 228.598 17.2526V31.1091Z" fill="var(--fill-0, #FEC804)"/>
<path id="Vector_5" d="M149.755 0C138.445 0 129.499 6.79393 129.499 17.0734V57.9266C129.499 68.5644 138.753 75 149.755 75C160.757 75 170.111 68.3852 170.111 58.1038V16.8962C170.113 6.43758 160.653 0 149.755 0ZM149.755 46.9753C147.397 37.3442 145.484 35.434 135.855 33.0759C145.486 30.7178 147.397 28.8056 149.755 19.1764C152.113 28.8075 154.025 30.7178 163.654 33.0759C154.023 35.434 152.113 37.3462 149.755 46.9753Z" fill="var(--fill-0, #FEC804)"/>
<path id="Vector_6" d="M102.744 74.7566H100.848C93.0198 74.7566 91.3374 73.302 90.4397 67.2441L82.2632 12.77C82.0198 11.5666 81.5681 7.85323 81.3617 6.15134C81.0579 3.65303 81.5953 2.01345 83.1336 1.04762C83.8814 0.578335 84.7693 0.379716 85.6534 0.379716H94.9281C100.322 0.379716 100.692 2.21207 100.692 8.41014L100.928 57.1457C100.939 58.1213 100.729 59.6888 102.744 59.6888C104.76 59.6888 104.549 58.1194 104.561 57.1457L104.797 8.41014C104.797 2.21207 105.167 0.379716 110.561 0.379716H119.835C120.719 0.379716 121.605 0.578335 122.355 1.04762C123.893 2.01345 124.431 3.65498 124.127 6.15134C123.919 7.85323 123.467 11.5666 123.225 12.77L115.049 67.2441C114.151 73.3001 112.469 74.7566 104.641 74.7566H102.744Z" fill="var(--fill-0, #FEC804)"/>
</g>
</svg>
