<svg width="39" height="29" viewBox="0 0 39 29" fill="none" xmlns="http://www.w3.org/2000/svg">
<path d="M1.67803 17.9686C1.94651 17.4137 2.1726 16.9013 2.43731 16.4105C2.97898 15.4053 3.71376 14.5613 4.68877 13.9612C5.12116 13.6955 5.29449 13.3894 5.33123 12.8713C5.38493 12.1223 5.58747 11.3828 5.74102 10.5652C5.49515 10.5425 5.22949 10.5152 4.96384 10.4936C3.84659 10.4031 3.23898 9.84167 3.08543 8.73479C3.05151 8.49268 3.05434 8.24493 3.0534 8C3.05057 6.14231 3.04304 4.28368 3.0534 2.42599C3.06282 0.677582 3.73355 0.0106228 5.47442 0.00497065C7.40276 -0.000681543 9.33016 -0.00256561 11.2585 0.00497065C12.9071 0.0115649 13.5533 0.651205 13.5627 2.29505C13.5731 4.04817 13.5655 5.80035 13.5665 7.55348C13.5665 7.89732 13.5665 8.24116 13.5665 8.65471C14.4529 8.83087 15.2537 8.74327 16.0431 8.74986C17.1952 8.76022 18.1561 9.18414 18.9549 9.99805C20.1164 11.1803 20.4141 13.1915 19.6897 14.6781C19.4617 15.1453 19.2526 15.6455 19.1659 16.1524C18.9106 17.6615 19.9318 18.8541 21.4607 18.8729C22.2963 18.8833 23.1394 18.9634 23.9307 18.5395C24.3528 18.3134 24.5374 18.0553 24.5157 17.5532C24.4517 16.0478 24.4178 14.5396 24.4262 13.0333C24.43 12.3381 24.5035 11.6325 24.6448 10.9523C24.9943 9.26421 25.8836 7.99341 27.6075 7.44514C27.8562 6.77724 27.7205 6.20543 27.3079 5.66376C26.8831 5.10608 26.4591 4.54557 26.0814 3.9568C25.8242 3.55549 25.5096 3.38593 25.0395 3.40571C24.6561 3.42172 24.2651 3.401 23.8864 3.34353C23.3853 3.26723 23.13 2.94788 23.1328 2.49194C23.1356 2.0294 23.4004 1.67708 23.8912 1.64976C24.6599 1.60643 25.4399 1.57534 26.1991 1.67143C26.5185 1.71193 26.8548 2.04165 27.079 2.32237C27.6433 3.03078 28.1482 3.78629 28.6635 4.50412C29.5839 4.27709 30.4185 4.02651 31.271 3.87296C32.4241 3.66571 32.8245 4.02368 32.8339 5.18332C32.8433 6.375 32.8414 7.56667 32.8339 8.75928C32.8263 10.032 32.6926 10.1573 31.3709 10.2081C31.2381 10.2128 31.1071 10.2618 30.9988 10.2863C31.4529 11.8576 31.8966 13.396 32.3808 15.0747C32.5974 15.0822 32.9356 15.0963 33.2729 15.1067C34.9026 15.1566 36.3599 15.6936 37.6477 16.6846C38.4164 17.2753 38.4578 17.6587 37.8624 18.4415C37.6288 18.7477 37.3688 19.034 37.1258 19.3327C36.9053 19.603 36.6896 19.8781 36.4202 20.2153C37.5016 21.9703 37.8493 23.8318 36.9506 25.7828C36.3043 27.1864 35.2464 28.1802 33.7882 28.6889C31.2513 29.5735 27.6037 28.6983 26.4657 24.4149H14.0959C13.2311 27.2768 11.4789 29.0431 8.40979 28.9631C5.5366 28.8877 3.90029 27.1657 3.11463 24.4696C2.83108 24.4394 2.55883 24.4046 2.28564 24.3829C1.26071 24.3038 1.10339 24.1427 1.09397 23.0791C1.08455 22.0655 1.09209 21.0519 1.09209 19.9497C0.63049 19.7764 -0.126904 19.701 0.0181686 18.8211C0.174546 17.8706 1.03085 18.1645 1.67615 17.9676L1.67803 17.9686ZM30.4251 15.4618C30.296 13.5128 29.6818 11.7521 28.688 10.113C28.0813 9.1116 27.5641 9.09087 26.9075 10.0452C26.7323 10.3004 26.5769 10.5981 26.5157 10.8968C26.3621 11.6476 26.1699 12.4097 26.169 13.168C26.1662 14.7779 26.2547 16.3897 26.3461 17.9987C26.3828 18.6497 26.217 19.1508 25.6876 19.555C23.9731 20.8616 21.9685 20.9972 20.0769 20.4386C18.1108 19.8574 16.9927 17.9347 17.4062 15.7708C17.4693 15.4411 17.5324 15.1114 17.5899 14.81C17.4392 14.7355 17.3779 14.679 17.3177 14.679C14.1986 14.6705 11.0786 14.6112 7.96139 14.6847C5.98971 14.7308 4.29971 16.1392 3.72507 18.0656C4.17065 18.0656 4.58043 18.0656 4.99022 18.0656C7.47907 18.0656 9.96792 18.0656 12.4558 18.0656C12.7008 18.0656 12.9495 18.0515 13.1916 18.0807C13.7181 18.1448 14.0695 18.5018 14.0799 18.9502C14.0903 19.3939 13.737 19.7811 13.2236 19.8451C12.9466 19.88 12.664 19.8611 12.3833 19.8621C9.64951 19.8621 6.91479 19.8621 4.18101 19.8621H3.06093C2.96108 20.806 2.70956 21.6378 2.97238 22.6439H4.21021C11.0098 22.6439 17.8103 22.6279 24.6099 22.6552C26.2038 22.6618 27.5585 22.2021 28.7106 21.098C29.5594 20.285 30.5494 19.6624 31.711 19.4466C32.5287 19.295 33.3793 19.3298 34.213 19.2498C34.5069 19.2215 34.864 19.18 35.0646 19.0011C35.4405 18.6676 35.7221 18.2295 36.065 17.8094C35.3058 17.2583 34.5823 17.0068 33.807 16.9474C32.344 16.8344 30.9432 16.9757 29.7563 17.995C29.3257 18.3652 28.8632 18.303 28.5439 17.9432C28.2028 17.5588 28.184 17.1603 28.5806 16.726C28.8585 16.4218 29.2127 16.1816 29.5547 15.9442C29.8071 15.768 30.0954 15.6427 30.4251 15.4628V15.4618ZM4.94123 1.87208V8.69899C7.2624 8.71877 9.5082 8.80261 11.7389 8.68674C11.9311 6.81963 11.8595 2.62665 11.6155 1.82215C11.0494 1.82215 10.4587 1.81744 9.86806 1.82498C9.70132 1.82686 9.53458 1.86831 9.30002 1.90222C9.28023 2.28375 9.2661 2.62382 9.24444 2.96295C9.19639 3.70622 8.84596 4.12636 8.29581 4.10281C7.78146 4.08115 7.48189 3.69209 7.44139 2.98839C7.41972 2.61911 7.40276 2.24983 7.38298 1.8702H4.94029L4.94123 1.87208ZM33.3633 20.985C32.2781 21.0038 31.1052 21.3627 30.1067 22.2322C29.6602 22.6213 29.2033 23.0056 28.7115 23.3335C28.2886 23.6161 28.2189 23.9298 28.3423 24.4008C28.8792 26.4544 30.9281 27.6527 32.9705 27.0809C34.9864 26.5166 36.1357 24.3537 35.4791 22.3603C35.1023 21.2167 34.7942 20.9935 33.3633 20.985ZM7.20305 12.8647C10.9392 13.07 17.4938 12.972 18.2456 12.6979C18.254 12.6056 18.2889 12.4982 18.2682 12.404C18.0138 11.2378 17.2206 10.5331 15.9574 10.5086C13.7869 10.4672 11.6155 10.4926 9.44509 10.5039C9.16907 10.5058 8.88458 10.5633 8.61987 10.6462C7.68537 10.9382 7.1682 11.7399 7.20305 12.8647ZM12.0621 24.5421C11.0626 24.3113 5.93602 24.3311 5.14659 24.5515C5.49326 26.1238 6.88276 27.225 8.5511 27.2495C10.1657 27.273 11.5986 26.1935 12.063 24.5421H12.0621ZM29.5547 6.19224V7.89732C30.0436 8.03297 30.4826 8.15449 30.9517 8.28544V5.71463C30.4213 5.8955 30.0059 6.03775 29.5547 6.19224Z" fill="white"/>
</svg>
