<svg width="54" height="46" viewBox="0 0 54 46" fill="none" xmlns="http://www.w3.org/2000/svg">
<path d="M28.422 4.5143C28.422 3.42351 28.3947 2.5102 28.4284 1.59819C28.4725 0.424489 28.8339 0.0462107 30.0193 0.0267786C32.1387 -0.00690369 34.2594 -0.00949463 36.38 0.0228922C37.6159 0.0423243 37.9424 0.424489 37.9851 1.72514C38.0123 2.54259 38.011 3.36133 38.0331 4.18006C38.0357 4.26816 38.1043 4.35495 38.1289 4.41195C39.7029 5.06487 41.3041 5.60897 42.7887 6.37848C44.228 7.12467 45.5481 8.10016 47.0198 9.03938C47.3864 8.70385 47.7647 8.3489 48.1533 8.0043C48.871 7.36952 49.5796 7.27883 50.0758 7.7478C50.6082 8.25173 50.5111 9.01218 49.8102 9.77392C49.4889 10.1237 49.1599 10.4657 48.744 10.9075C53.8352 17.232 55.325 24.2495 52.5709 31.9071C50.6574 37.2263 46.9822 41.0894 41.8327 43.4381C31.373 48.2067 19.1269 43.644 14.4114 33.2608C12.6936 29.4793 12.1288 25.523 12.7973 21.4137C13.4644 17.3097 15.2094 13.7303 18.0323 10.6652C20.8512 7.60529 24.3244 5.65043 28.4258 4.51559L28.422 4.5143ZM33.1634 42.8499C42.2006 43.0844 51.3985 35.7468 51.4671 24.6019C51.5293 14.6203 43.2681 6.46269 33.201 6.41087C23.2452 6.36034 15.0216 14.6034 14.9892 24.6382C14.9555 35.1509 23.8062 43.0455 33.1621 42.8499H33.1634ZM30.9844 3.96502H35.5704C35.5471 3.44812 35.5276 3.01025 35.5069 2.5672H30.9844V3.96502Z" fill="#FEC804"/>
<path d="M5.28093 10.9139C3.98416 10.9139 2.68869 10.9152 1.39192 10.9139C0.8245 10.9139 0.345175 10.7377 0.104217 10.1794C-0.183378 9.51348 0.143081 8.78542 0.851705 8.58204C1.21314 8.4784 1.60826 8.45378 1.98783 8.45249C4.19662 8.44083 6.4041 8.44472 8.61288 8.45249C8.94582 8.45249 9.28912 8.45897 9.6104 8.53799C10.2491 8.69345 10.6312 9.20645 10.5963 9.78035C10.5626 10.3426 10.1208 10.8426 9.45623 10.8789C8.35508 10.9385 7.24875 10.9048 6.14501 10.91C5.85741 10.9113 5.56852 10.91 5.28093 10.91V10.9152V10.9139Z" fill="#FEC804"/>
<path d="M3.38436 26.5581C2.66278 26.5581 1.93731 26.5995 1.21962 26.5464C0.42161 26.4881 0.035559 26.0658 0.0264907 25.3779C0.0174224 24.6848 0.372382 24.2055 1.18076 24.1692C2.66666 24.1032 4.16164 24.1213 5.64884 24.1926C6.37949 24.2275 6.84327 24.8157 6.82254 25.4194C6.80181 26.0282 6.31472 26.4998 5.55039 26.549C4.8314 26.5957 4.10723 26.5594 3.38436 26.5594V26.5568V26.5581Z" fill="#FEC804"/>
<path d="M7.89389 34.3853C7.26947 34.3853 6.64117 34.4306 6.02193 34.3736C5.25761 34.3037 4.87803 33.8373 4.90912 33.1403C4.93762 32.4978 5.27963 32.0806 6.0025 32.0495C7.24875 31.9951 8.50017 31.9951 9.74642 32.0495C10.4784 32.0806 10.9214 32.6286 10.8903 33.2673C10.8618 33.8425 10.4317 34.2713 9.76844 34.3801C9.67387 34.3956 9.57671 34.393 9.48085 34.393C8.95229 34.393 8.42374 34.393 7.89519 34.393C7.89519 34.3905 7.89519 34.3866 7.89519 34.384L7.89389 34.3853Z" fill="#FEC804"/>
<path d="M7.91462 18.7268C7.29149 18.7268 6.66319 18.7709 6.04525 18.7152C5.29776 18.6478 4.89098 18.1711 4.90005 17.5013C4.90912 16.8873 5.27185 16.4118 5.9727 16.3807C7.26429 16.3224 8.56235 16.3341 9.85264 16.4015C10.4939 16.4351 10.902 16.9987 10.8851 17.5803C10.8696 18.1102 10.389 18.6556 9.78398 18.7074C9.16475 18.7605 8.53774 18.7191 7.91462 18.7191C7.91462 18.7217 7.91462 18.7242 7.91462 18.7255V18.7268Z" fill="#FEC804"/>
<path d="M48.6054 24.6913C48.5912 32.9849 41.9195 39.8444 33.6544 40.0621C26.1108 40.2603 19.3679 34.8517 18.0711 27.426C16.9428 20.959 19.7773 14.7926 25.3064 11.4684C25.6328 11.2715 25.9839 11.0797 26.3492 10.9916C26.9205 10.853 27.4257 11.0538 27.668 11.6122C27.8947 12.1317 27.8623 12.6628 27.3687 13.0489C27.1045 13.2548 26.8052 13.4168 26.5189 13.5943C21.6868 16.6088 19.3783 22.0368 20.5882 27.5426C21.7334 32.7569 26.2456 36.8933 31.7021 37.5139C40.5022 38.5153 47.6144 30.736 45.8862 22.0913C45.5403 20.3644 44.8771 18.7813 43.8679 17.3408C43.6749 17.0648 43.4598 16.7954 43.3147 16.4948C43.0323 15.9093 43.2046 15.3393 43.7383 14.9817C44.2488 14.6397 44.7656 14.676 45.1841 15.1048C45.552 15.4805 45.8772 15.9093 46.1622 16.3523C47.7945 18.8901 48.6041 21.6741 48.6028 24.6926L48.6054 24.6913Z" fill="#FEC804"/>
<path d="M34.4239 23.436C36.2401 23.436 37.8193 23.4334 39.3972 23.4373C39.7807 23.4373 40.1719 23.4153 40.5476 23.4774C41.128 23.5759 41.4946 23.9594 41.5658 24.541C41.6397 25.1486 41.3041 25.558 40.7562 25.7523C40.4478 25.8611 40.1006 25.9013 39.7716 25.9026C37.8012 25.9116 35.8295 25.9181 33.8604 25.8883C32.3757 25.865 31.9599 25.4556 31.9508 23.9943C31.9314 20.6779 31.9443 17.3615 31.9456 14.0451C31.9456 13.9013 31.9379 13.7549 31.9573 13.6124C32.0817 12.7276 32.64 12.1835 33.3448 12.2535C34.0054 12.3182 34.4045 12.8002 34.4135 13.7199C34.4394 16.3148 34.4239 18.9109 34.4252 21.5057C34.4252 22.0719 34.4252 22.6393 34.4252 23.4347L34.4239 23.436Z" fill="#FEC804"/>
</svg>
